<mxfile host="app.diagrams.net" agent="Mozilla/5.0 (Windows NT 10.0; Win64; x64) AppleWebKit/537.36 (KHTML, like Gecko) Chrome/134.0.0.0 Safari/537.36" version="26.1.0">
  <diagram name="Page-1" id="2YBvvXClWsGukQMizWep">
    <mxGraphModel dx="2954" dy="1138" grid="1" gridSize="10" guides="1" tooltips="1" connect="1" arrows="1" fold="1" page="1" pageScale="1" pageWidth="850" pageHeight="1100" math="0" shadow="0">
      <root>
        <mxCell id="0" />
        <mxCell id="1" parent="0" />
        <mxCell id="h4aKraKf9S6yaCVDZAv2-63" style="edgeStyle=orthogonalEdgeStyle;rounded=0;orthogonalLoop=1;jettySize=auto;html=1;entryX=1;entryY=0.5;entryDx=0;entryDy=0;exitX=0;exitY=0.3;exitDx=0;exitDy=0;" edge="1" parent="1" source="h4aKraKf9S6yaCVDZAv2-27" target="h4aKraKf9S6yaCVDZAv2-53">
          <mxGeometry relative="1" as="geometry" />
        </mxCell>
        <mxCell id="h4aKraKf9S6yaCVDZAv2-65" style="edgeStyle=orthogonalEdgeStyle;rounded=0;orthogonalLoop=1;jettySize=auto;html=1;entryX=1;entryY=0.5;entryDx=0;entryDy=0;exitX=0;exitY=0.3;exitDx=0;exitDy=0;" edge="1" parent="1" source="h4aKraKf9S6yaCVDZAv2-27" target="h4aKraKf9S6yaCVDZAv2-62">
          <mxGeometry relative="1" as="geometry" />
        </mxCell>
        <mxCell id="h4aKraKf9S6yaCVDZAv2-88" style="edgeStyle=orthogonalEdgeStyle;rounded=0;orthogonalLoop=1;jettySize=auto;html=1;entryX=0;entryY=0.5;entryDx=0;entryDy=0;exitX=1;exitY=0.3;exitDx=0;exitDy=0;" edge="1" parent="1" source="h4aKraKf9S6yaCVDZAv2-27" target="h4aKraKf9S6yaCVDZAv2-76">
          <mxGeometry relative="1" as="geometry">
            <Array as="points">
              <mxPoint x="660" y="619" />
              <mxPoint x="660" y="185" />
            </Array>
          </mxGeometry>
        </mxCell>
        <mxCell id="h4aKraKf9S6yaCVDZAv2-145" style="edgeStyle=orthogonalEdgeStyle;rounded=0;orthogonalLoop=1;jettySize=auto;html=1;entryX=1;entryY=0.5;entryDx=0;entryDy=0;exitX=0.5;exitY=1;exitDx=0;exitDy=0;" edge="1" parent="1" source="h4aKraKf9S6yaCVDZAv2-27" target="h4aKraKf9S6yaCVDZAv2-107">
          <mxGeometry relative="1" as="geometry">
            <Array as="points">
              <mxPoint x="540" y="700" />
              <mxPoint x="440" y="700" />
              <mxPoint x="440" y="985" />
            </Array>
          </mxGeometry>
        </mxCell>
        <mxCell id="h4aKraKf9S6yaCVDZAv2-146" style="edgeStyle=orthogonalEdgeStyle;rounded=0;orthogonalLoop=1;jettySize=auto;html=1;entryX=1;entryY=0.5;entryDx=0;entryDy=0;" edge="1" parent="1" source="h4aKraKf9S6yaCVDZAv2-27" target="h4aKraKf9S6yaCVDZAv2-108">
          <mxGeometry relative="1" as="geometry">
            <Array as="points">
              <mxPoint x="540" y="700" />
              <mxPoint x="440" y="700" />
              <mxPoint x="440" y="1185" />
            </Array>
          </mxGeometry>
        </mxCell>
        <mxCell id="h4aKraKf9S6yaCVDZAv2-27" value="MatDB" style="shape=cylinder;whiteSpace=wrap;html=1;boundedLbl=1;backgroundOutline=1;" vertex="1" parent="1">
          <mxGeometry x="510" y="595" width="60" height="80" as="geometry" />
        </mxCell>
        <mxCell id="h4aKraKf9S6yaCVDZAv2-29" value="ConDB" style="shape=cylinder;whiteSpace=wrap;html=1;boundedLbl=1;backgroundOutline=1;" vertex="1" parent="1">
          <mxGeometry x="500" y="1645" width="60" height="80" as="geometry" />
        </mxCell>
        <mxCell id="h4aKraKf9S6yaCVDZAv2-37" style="edgeStyle=orthogonalEdgeStyle;rounded=0;orthogonalLoop=1;jettySize=auto;html=1;entryX=0.5;entryY=0;entryDx=0;entryDy=0;" edge="1" parent="1" source="h4aKraKf9S6yaCVDZAv2-30" target="h4aKraKf9S6yaCVDZAv2-32">
          <mxGeometry relative="1" as="geometry" />
        </mxCell>
        <mxCell id="h4aKraKf9S6yaCVDZAv2-30" value="Create Mat" style="html=1;dashed=0;whiteSpace=wrap;shape=mxgraph.dfd.start" vertex="1" parent="1">
          <mxGeometry x="500" y="90" width="80" height="30" as="geometry" />
        </mxCell>
        <mxCell id="h4aKraKf9S6yaCVDZAv2-35" style="edgeStyle=orthogonalEdgeStyle;rounded=0;orthogonalLoop=1;jettySize=auto;html=1;entryX=0.5;entryY=0;entryDx=0;entryDy=0;" edge="1" parent="1" source="h4aKraKf9S6yaCVDZAv2-32" target="h4aKraKf9S6yaCVDZAv2-33">
          <mxGeometry relative="1" as="geometry" />
        </mxCell>
        <mxCell id="h4aKraKf9S6yaCVDZAv2-32" value="Insert Mat information" style="html=1;dashed=0;whiteSpace=wrap;" vertex="1" parent="1">
          <mxGeometry x="490" y="160" width="100" height="50" as="geometry" />
        </mxCell>
        <mxCell id="h4aKraKf9S6yaCVDZAv2-40" style="edgeStyle=orthogonalEdgeStyle;rounded=0;orthogonalLoop=1;jettySize=auto;html=1;" edge="1" parent="1" source="h4aKraKf9S6yaCVDZAv2-33" target="h4aKraKf9S6yaCVDZAv2-39">
          <mxGeometry relative="1" as="geometry" />
        </mxCell>
        <mxCell id="h4aKraKf9S6yaCVDZAv2-42" style="edgeStyle=orthogonalEdgeStyle;rounded=0;orthogonalLoop=1;jettySize=auto;html=1;entryX=1;entryY=0.5;entryDx=0;entryDy=0;" edge="1" parent="1" source="h4aKraKf9S6yaCVDZAv2-33" target="h4aKraKf9S6yaCVDZAv2-32">
          <mxGeometry relative="1" as="geometry">
            <mxPoint x="640" y="210" as="targetPoint" />
            <Array as="points">
              <mxPoint x="620" y="285" />
              <mxPoint x="620" y="185" />
            </Array>
          </mxGeometry>
        </mxCell>
        <mxCell id="h4aKraKf9S6yaCVDZAv2-33" value="All data inserted?" style="shape=hexagon;perimeter=hexagonPerimeter2;whiteSpace=wrap;html=1;size=0.25" vertex="1" parent="1">
          <mxGeometry x="490" y="260" width="100" height="50" as="geometry" />
        </mxCell>
        <mxCell id="h4aKraKf9S6yaCVDZAv2-50" value="" style="edgeStyle=orthogonalEdgeStyle;rounded=0;orthogonalLoop=1;jettySize=auto;html=1;" edge="1" parent="1" source="h4aKraKf9S6yaCVDZAv2-39" target="h4aKraKf9S6yaCVDZAv2-27">
          <mxGeometry relative="1" as="geometry" />
        </mxCell>
        <mxCell id="h4aKraKf9S6yaCVDZAv2-39" value="Store information into MatDB" style="html=1;dashed=0;whiteSpace=wrap;" vertex="1" parent="1">
          <mxGeometry x="490" y="360" width="100" height="50" as="geometry" />
        </mxCell>
        <mxCell id="h4aKraKf9S6yaCVDZAv2-46" value="Yes" style="text;strokeColor=none;align=center;fillColor=none;html=1;verticalAlign=middle;whiteSpace=wrap;rounded=0;" vertex="1" parent="1">
          <mxGeometry x="520" y="310" width="60" height="30" as="geometry" />
        </mxCell>
        <mxCell id="h4aKraKf9S6yaCVDZAv2-49" value="No" style="text;strokeColor=none;align=center;fillColor=none;html=1;verticalAlign=middle;whiteSpace=wrap;rounded=0;" vertex="1" parent="1">
          <mxGeometry x="570" y="280" width="60" height="30" as="geometry" />
        </mxCell>
        <mxCell id="h4aKraKf9S6yaCVDZAv2-58" value="" style="edgeStyle=orthogonalEdgeStyle;rounded=0;orthogonalLoop=1;jettySize=auto;html=1;" edge="1" parent="1" source="h4aKraKf9S6yaCVDZAv2-51" target="h4aKraKf9S6yaCVDZAv2-53">
          <mxGeometry relative="1" as="geometry" />
        </mxCell>
        <mxCell id="h4aKraKf9S6yaCVDZAv2-51" value="Edit Mat" style="html=1;dashed=0;whiteSpace=wrap;shape=mxgraph.dfd.start" vertex="1" parent="1">
          <mxGeometry x="290" y="90" width="80" height="30" as="geometry" />
        </mxCell>
        <mxCell id="h4aKraKf9S6yaCVDZAv2-56" style="edgeStyle=orthogonalEdgeStyle;rounded=0;orthogonalLoop=1;jettySize=auto;html=1;entryX=0.5;entryY=0;entryDx=0;entryDy=0;" edge="1" parent="1" source="h4aKraKf9S6yaCVDZAv2-52" target="h4aKraKf9S6yaCVDZAv2-54">
          <mxGeometry relative="1" as="geometry" />
        </mxCell>
        <mxCell id="h4aKraKf9S6yaCVDZAv2-52" value="Choose Mat to edit" style="html=1;dashed=0;whiteSpace=wrap;" vertex="1" parent="1">
          <mxGeometry x="280" y="250" width="100" height="50" as="geometry" />
        </mxCell>
        <mxCell id="h4aKraKf9S6yaCVDZAv2-57" value="" style="edgeStyle=orthogonalEdgeStyle;rounded=0;orthogonalLoop=1;jettySize=auto;html=1;" edge="1" parent="1" source="h4aKraKf9S6yaCVDZAv2-53" target="h4aKraKf9S6yaCVDZAv2-52">
          <mxGeometry relative="1" as="geometry" />
        </mxCell>
        <mxCell id="h4aKraKf9S6yaCVDZAv2-53" value="Get list of Mat Keys in MatDB" style="html=1;dashed=0;whiteSpace=wrap;" vertex="1" parent="1">
          <mxGeometry x="280" y="160" width="100" height="50" as="geometry" />
        </mxCell>
        <mxCell id="h4aKraKf9S6yaCVDZAv2-55" style="edgeStyle=orthogonalEdgeStyle;rounded=0;orthogonalLoop=1;jettySize=auto;html=1;entryX=1;entryY=0.5;entryDx=0;entryDy=0;" edge="1" parent="1" source="h4aKraKf9S6yaCVDZAv2-54" target="h4aKraKf9S6yaCVDZAv2-52">
          <mxGeometry relative="1" as="geometry">
            <Array as="points">
              <mxPoint x="400" y="375" />
              <mxPoint x="400" y="275" />
            </Array>
          </mxGeometry>
        </mxCell>
        <mxCell id="h4aKraKf9S6yaCVDZAv2-64" value="" style="edgeStyle=orthogonalEdgeStyle;rounded=0;orthogonalLoop=1;jettySize=auto;html=1;" edge="1" parent="1" source="h4aKraKf9S6yaCVDZAv2-54" target="h4aKraKf9S6yaCVDZAv2-62">
          <mxGeometry relative="1" as="geometry" />
        </mxCell>
        <mxCell id="h4aKraKf9S6yaCVDZAv2-54" value="Is Mat in MatDB?" style="shape=hexagon;perimeter=hexagonPerimeter2;whiteSpace=wrap;html=1;size=0.25" vertex="1" parent="1">
          <mxGeometry x="280" y="350" width="100" height="50" as="geometry" />
        </mxCell>
        <mxCell id="h4aKraKf9S6yaCVDZAv2-59" value="Yes" style="text;strokeColor=none;align=center;fillColor=none;html=1;verticalAlign=middle;whiteSpace=wrap;rounded=0;" vertex="1" parent="1">
          <mxGeometry x="310" y="400" width="60" height="30" as="geometry" />
        </mxCell>
        <mxCell id="h4aKraKf9S6yaCVDZAv2-60" value="No" style="text;strokeColor=none;align=center;fillColor=none;html=1;verticalAlign=middle;whiteSpace=wrap;rounded=0;" vertex="1" parent="1">
          <mxGeometry x="360" y="370" width="60" height="30" as="geometry" />
        </mxCell>
        <mxCell id="h4aKraKf9S6yaCVDZAv2-68" value="" style="edgeStyle=orthogonalEdgeStyle;rounded=0;orthogonalLoop=1;jettySize=auto;html=1;" edge="1" parent="1" source="h4aKraKf9S6yaCVDZAv2-62" target="h4aKraKf9S6yaCVDZAv2-66">
          <mxGeometry relative="1" as="geometry" />
        </mxCell>
        <mxCell id="h4aKraKf9S6yaCVDZAv2-62" value="Get values for Mat in MatDB" style="html=1;dashed=0;whiteSpace=wrap;" vertex="1" parent="1">
          <mxGeometry x="280" y="450" width="100" height="50" as="geometry" />
        </mxCell>
        <mxCell id="h4aKraKf9S6yaCVDZAv2-69" value="" style="edgeStyle=orthogonalEdgeStyle;rounded=0;orthogonalLoop=1;jettySize=auto;html=1;" edge="1" parent="1" source="h4aKraKf9S6yaCVDZAv2-66" target="h4aKraKf9S6yaCVDZAv2-67">
          <mxGeometry relative="1" as="geometry" />
        </mxCell>
        <mxCell id="h4aKraKf9S6yaCVDZAv2-66" value="Edit values for Mat" style="html=1;dashed=0;whiteSpace=wrap;" vertex="1" parent="1">
          <mxGeometry x="280" y="540" width="100" height="50" as="geometry" />
        </mxCell>
        <mxCell id="h4aKraKf9S6yaCVDZAv2-71" style="edgeStyle=orthogonalEdgeStyle;rounded=0;orthogonalLoop=1;jettySize=auto;html=1;entryX=-0.007;entryY=0.759;entryDx=0;entryDy=0;entryPerimeter=0;" edge="1" parent="1" source="h4aKraKf9S6yaCVDZAv2-67" target="h4aKraKf9S6yaCVDZAv2-27">
          <mxGeometry relative="1" as="geometry" />
        </mxCell>
        <mxCell id="h4aKraKf9S6yaCVDZAv2-67" value="Store information into MatDB" style="html=1;dashed=0;whiteSpace=wrap;" vertex="1" parent="1">
          <mxGeometry x="280" y="630" width="100" height="50" as="geometry" />
        </mxCell>
        <mxCell id="h4aKraKf9S6yaCVDZAv2-83" value="" style="edgeStyle=orthogonalEdgeStyle;rounded=0;orthogonalLoop=1;jettySize=auto;html=1;" edge="1" parent="1" source="h4aKraKf9S6yaCVDZAv2-73" target="h4aKraKf9S6yaCVDZAv2-76">
          <mxGeometry relative="1" as="geometry" />
        </mxCell>
        <mxCell id="h4aKraKf9S6yaCVDZAv2-73" value="Delete Mat" style="html=1;dashed=0;whiteSpace=wrap;shape=mxgraph.dfd.start" vertex="1" parent="1">
          <mxGeometry x="720" y="90" width="80" height="30" as="geometry" />
        </mxCell>
        <mxCell id="h4aKraKf9S6yaCVDZAv2-82" style="edgeStyle=orthogonalEdgeStyle;rounded=0;orthogonalLoop=1;jettySize=auto;html=1;entryX=0.5;entryY=0;entryDx=0;entryDy=0;" edge="1" parent="1" source="h4aKraKf9S6yaCVDZAv2-74" target="h4aKraKf9S6yaCVDZAv2-78">
          <mxGeometry relative="1" as="geometry" />
        </mxCell>
        <mxCell id="h4aKraKf9S6yaCVDZAv2-74" value="Choose Mat to edit" style="html=1;dashed=0;whiteSpace=wrap;" vertex="1" parent="1">
          <mxGeometry x="710" y="250" width="100" height="50" as="geometry" />
        </mxCell>
        <mxCell id="h4aKraKf9S6yaCVDZAv2-75" value="" style="edgeStyle=orthogonalEdgeStyle;rounded=0;orthogonalLoop=1;jettySize=auto;html=1;" edge="1" parent="1" source="h4aKraKf9S6yaCVDZAv2-76" target="h4aKraKf9S6yaCVDZAv2-74">
          <mxGeometry relative="1" as="geometry" />
        </mxCell>
        <mxCell id="h4aKraKf9S6yaCVDZAv2-76" value="Get list of Mat Keys in MatDB" style="html=1;dashed=0;whiteSpace=wrap;" vertex="1" parent="1">
          <mxGeometry x="710" y="160" width="100" height="50" as="geometry" />
        </mxCell>
        <mxCell id="h4aKraKf9S6yaCVDZAv2-77" style="edgeStyle=orthogonalEdgeStyle;rounded=0;orthogonalLoop=1;jettySize=auto;html=1;entryX=1;entryY=0.5;entryDx=0;entryDy=0;" edge="1" parent="1" source="h4aKraKf9S6yaCVDZAv2-78" target="h4aKraKf9S6yaCVDZAv2-74">
          <mxGeometry relative="1" as="geometry">
            <Array as="points">
              <mxPoint x="830" y="375" />
              <mxPoint x="830" y="275" />
            </Array>
          </mxGeometry>
        </mxCell>
        <mxCell id="h4aKraKf9S6yaCVDZAv2-91" style="edgeStyle=orthogonalEdgeStyle;rounded=0;orthogonalLoop=1;jettySize=auto;html=1;" edge="1" parent="1" source="h4aKraKf9S6yaCVDZAv2-78" target="h4aKraKf9S6yaCVDZAv2-90">
          <mxGeometry relative="1" as="geometry" />
        </mxCell>
        <mxCell id="h4aKraKf9S6yaCVDZAv2-78" value="Is Mat in MatDB?" style="shape=hexagon;perimeter=hexagonPerimeter2;whiteSpace=wrap;html=1;size=0.25" vertex="1" parent="1">
          <mxGeometry x="710" y="350" width="100" height="50" as="geometry" />
        </mxCell>
        <mxCell id="h4aKraKf9S6yaCVDZAv2-79" value="Yes" style="text;strokeColor=none;align=center;fillColor=none;html=1;verticalAlign=middle;whiteSpace=wrap;rounded=0;" vertex="1" parent="1">
          <mxGeometry x="740" y="400" width="60" height="30" as="geometry" />
        </mxCell>
        <mxCell id="h4aKraKf9S6yaCVDZAv2-80" value="No" style="text;strokeColor=none;align=center;fillColor=none;html=1;verticalAlign=middle;whiteSpace=wrap;rounded=0;" vertex="1" parent="1">
          <mxGeometry x="790" y="370" width="60" height="30" as="geometry" />
        </mxCell>
        <mxCell id="h4aKraKf9S6yaCVDZAv2-94" style="edgeStyle=orthogonalEdgeStyle;rounded=0;orthogonalLoop=1;jettySize=auto;html=1;" edge="1" parent="1" source="h4aKraKf9S6yaCVDZAv2-90" target="h4aKraKf9S6yaCVDZAv2-93">
          <mxGeometry relative="1" as="geometry" />
        </mxCell>
        <mxCell id="h4aKraKf9S6yaCVDZAv2-98" style="edgeStyle=orthogonalEdgeStyle;rounded=0;orthogonalLoop=1;jettySize=auto;html=1;entryX=0.5;entryY=0;entryDx=0;entryDy=0;" edge="1" parent="1" source="h4aKraKf9S6yaCVDZAv2-90" target="h4aKraKf9S6yaCVDZAv2-97">
          <mxGeometry relative="1" as="geometry" />
        </mxCell>
        <mxCell id="h4aKraKf9S6yaCVDZAv2-90" value="Is Mat standard?" style="shape=hexagon;perimeter=hexagonPerimeter2;whiteSpace=wrap;html=1;size=0.25" vertex="1" parent="1">
          <mxGeometry x="710" y="450" width="100" height="50" as="geometry" />
        </mxCell>
        <mxCell id="h4aKraKf9S6yaCVDZAv2-93" value="Error - Not possible" style="html=1;dashed=0;whiteSpace=wrap;shape=mxgraph.dfd.start" vertex="1" parent="1">
          <mxGeometry x="860" y="460" width="80" height="30" as="geometry" />
        </mxCell>
        <mxCell id="h4aKraKf9S6yaCVDZAv2-95" value="No" style="text;strokeColor=none;align=center;fillColor=none;html=1;verticalAlign=middle;whiteSpace=wrap;rounded=0;" vertex="1" parent="1">
          <mxGeometry x="740" y="500" width="60" height="30" as="geometry" />
        </mxCell>
        <mxCell id="h4aKraKf9S6yaCVDZAv2-100" style="edgeStyle=orthogonalEdgeStyle;rounded=0;orthogonalLoop=1;jettySize=auto;html=1;entryX=1;entryY=0.7;entryDx=0;entryDy=0;" edge="1" parent="1" source="h4aKraKf9S6yaCVDZAv2-97" target="h4aKraKf9S6yaCVDZAv2-27">
          <mxGeometry relative="1" as="geometry">
            <Array as="points">
              <mxPoint x="690" y="570" />
              <mxPoint x="690" y="651" />
            </Array>
          </mxGeometry>
        </mxCell>
        <mxCell id="h4aKraKf9S6yaCVDZAv2-97" value="Delete stored information for Mat in MatDB" style="html=1;dashed=0;whiteSpace=wrap;" vertex="1" parent="1">
          <mxGeometry x="710" y="545" width="100" height="50" as="geometry" />
        </mxCell>
        <mxCell id="h4aKraKf9S6yaCVDZAv2-99" value="Yes" style="text;strokeColor=none;align=center;fillColor=none;html=1;verticalAlign=middle;whiteSpace=wrap;rounded=0;" vertex="1" parent="1">
          <mxGeometry x="790" y="470" width="60" height="30" as="geometry" />
        </mxCell>
        <mxCell id="h4aKraKf9S6yaCVDZAv2-113" value="" style="edgeStyle=orthogonalEdgeStyle;rounded=0;orthogonalLoop=1;jettySize=auto;html=1;" edge="1" parent="1" source="h4aKraKf9S6yaCVDZAv2-105" target="h4aKraKf9S6yaCVDZAv2-106">
          <mxGeometry relative="1" as="geometry" />
        </mxCell>
        <mxCell id="h4aKraKf9S6yaCVDZAv2-105" value="Create Con" style="html=1;dashed=0;whiteSpace=wrap;shape=mxgraph.dfd.start" vertex="1" parent="1">
          <mxGeometry x="290" y="780" width="80" height="30" as="geometry" />
        </mxCell>
        <mxCell id="h4aKraKf9S6yaCVDZAv2-112" value="" style="edgeStyle=orthogonalEdgeStyle;rounded=0;orthogonalLoop=1;jettySize=auto;html=1;" edge="1" parent="1" source="h4aKraKf9S6yaCVDZAv2-106" target="h4aKraKf9S6yaCVDZAv2-107">
          <mxGeometry relative="1" as="geometry" />
        </mxCell>
        <mxCell id="h4aKraKf9S6yaCVDZAv2-130" style="edgeStyle=orthogonalEdgeStyle;rounded=0;orthogonalLoop=1;jettySize=auto;html=1;exitX=0;exitY=0.5;exitDx=0;exitDy=0;" edge="1" parent="1" source="h4aKraKf9S6yaCVDZAv2-106" target="h4aKraKf9S6yaCVDZAv2-127">
          <mxGeometry relative="1" as="geometry">
            <Array as="points">
              <mxPoint x="110" y="885" />
              <mxPoint x="110" y="1460" />
            </Array>
          </mxGeometry>
        </mxCell>
        <mxCell id="h4aKraKf9S6yaCVDZAv2-106" value="Name layers of Con" style="html=1;dashed=0;whiteSpace=wrap;" vertex="1" parent="1">
          <mxGeometry x="280" y="860" width="100" height="50" as="geometry" />
        </mxCell>
        <mxCell id="h4aKraKf9S6yaCVDZAv2-111" value="" style="edgeStyle=orthogonalEdgeStyle;rounded=0;orthogonalLoop=1;jettySize=auto;html=1;" edge="1" parent="1" source="h4aKraKf9S6yaCVDZAv2-107" target="h4aKraKf9S6yaCVDZAv2-109">
          <mxGeometry relative="1" as="geometry" />
        </mxCell>
        <mxCell id="h4aKraKf9S6yaCVDZAv2-107" value="Get list of possible Mat types" style="html=1;dashed=0;whiteSpace=wrap;" vertex="1" parent="1">
          <mxGeometry x="280" y="960" width="100" height="50" as="geometry" />
        </mxCell>
        <mxCell id="h4aKraKf9S6yaCVDZAv2-118" value="" style="edgeStyle=orthogonalEdgeStyle;rounded=0;orthogonalLoop=1;jettySize=auto;html=1;" edge="1" parent="1" source="h4aKraKf9S6yaCVDZAv2-108" target="h4aKraKf9S6yaCVDZAv2-117">
          <mxGeometry relative="1" as="geometry" />
        </mxCell>
        <mxCell id="h4aKraKf9S6yaCVDZAv2-108" value="Get list of possible Mats for given type" style="html=1;dashed=0;whiteSpace=wrap;" vertex="1" parent="1">
          <mxGeometry x="280" y="1160" width="100" height="50" as="geometry" />
        </mxCell>
        <mxCell id="h4aKraKf9S6yaCVDZAv2-110" value="" style="edgeStyle=orthogonalEdgeStyle;rounded=0;orthogonalLoop=1;jettySize=auto;html=1;" edge="1" parent="1" source="h4aKraKf9S6yaCVDZAv2-109" target="h4aKraKf9S6yaCVDZAv2-108">
          <mxGeometry relative="1" as="geometry" />
        </mxCell>
        <mxCell id="h4aKraKf9S6yaCVDZAv2-114" style="edgeStyle=orthogonalEdgeStyle;rounded=0;orthogonalLoop=1;jettySize=auto;html=1;entryX=0.5;entryY=1;entryDx=0;entryDy=0;" edge="1" parent="1" source="h4aKraKf9S6yaCVDZAv2-109" target="h4aKraKf9S6yaCVDZAv2-115">
          <mxGeometry relative="1" as="geometry">
            <mxPoint x="190" y="1085" as="targetPoint" />
          </mxGeometry>
        </mxCell>
        <mxCell id="h4aKraKf9S6yaCVDZAv2-109" value="Is Mat type valid?" style="shape=hexagon;perimeter=hexagonPerimeter2;whiteSpace=wrap;html=1;size=0.25" vertex="1" parent="1">
          <mxGeometry x="280" y="1060" width="100" height="50" as="geometry" />
        </mxCell>
        <mxCell id="h4aKraKf9S6yaCVDZAv2-116" style="edgeStyle=orthogonalEdgeStyle;rounded=0;orthogonalLoop=1;jettySize=auto;html=1;entryX=0;entryY=0.5;entryDx=0;entryDy=0;exitX=0.5;exitY=0;exitDx=0;exitDy=0;" edge="1" parent="1" source="h4aKraKf9S6yaCVDZAv2-115" target="h4aKraKf9S6yaCVDZAv2-107">
          <mxGeometry relative="1" as="geometry" />
        </mxCell>
        <mxCell id="h4aKraKf9S6yaCVDZAv2-115" value="Error - Pick a new Mat type or create new Mat" style="html=1;dashed=0;whiteSpace=wrap;" vertex="1" parent="1">
          <mxGeometry x="140" y="1010" width="100" height="50" as="geometry" />
        </mxCell>
        <mxCell id="h4aKraKf9S6yaCVDZAv2-128" value="" style="edgeStyle=orthogonalEdgeStyle;rounded=0;orthogonalLoop=1;jettySize=auto;html=1;" edge="1" parent="1" source="h4aKraKf9S6yaCVDZAv2-117" target="h4aKraKf9S6yaCVDZAv2-126">
          <mxGeometry relative="1" as="geometry" />
        </mxCell>
        <mxCell id="h4aKraKf9S6yaCVDZAv2-117" value="Is Mat valid?" style="shape=hexagon;perimeter=hexagonPerimeter2;whiteSpace=wrap;html=1;size=0.25" vertex="1" parent="1">
          <mxGeometry x="280" y="1260" width="100" height="50" as="geometry" />
        </mxCell>
        <mxCell id="h4aKraKf9S6yaCVDZAv2-119" style="edgeStyle=orthogonalEdgeStyle;rounded=0;orthogonalLoop=1;jettySize=auto;html=1;entryX=0.5;entryY=1;entryDx=0;entryDy=0;exitX=0;exitY=0.5;exitDx=0;exitDy=0;" edge="1" parent="1" target="h4aKraKf9S6yaCVDZAv2-121" source="h4aKraKf9S6yaCVDZAv2-117">
          <mxGeometry relative="1" as="geometry">
            <mxPoint x="160" y="1280" as="targetPoint" />
            <mxPoint x="250" y="1280" as="sourcePoint" />
          </mxGeometry>
        </mxCell>
        <mxCell id="h4aKraKf9S6yaCVDZAv2-120" style="edgeStyle=orthogonalEdgeStyle;rounded=0;orthogonalLoop=1;jettySize=auto;html=1;entryX=0;entryY=0.5;entryDx=0;entryDy=0;exitX=0.5;exitY=0;exitDx=0;exitDy=0;" edge="1" parent="1" source="h4aKraKf9S6yaCVDZAv2-121" target="h4aKraKf9S6yaCVDZAv2-108">
          <mxGeometry relative="1" as="geometry">
            <mxPoint x="250" y="1180" as="targetPoint" />
          </mxGeometry>
        </mxCell>
        <mxCell id="h4aKraKf9S6yaCVDZAv2-121" value="Error - Pick a new Mat type&amp;nbsp;or create new Mat" style="html=1;dashed=0;whiteSpace=wrap;" vertex="1" parent="1">
          <mxGeometry x="140" y="1210" width="100" height="50" as="geometry" />
        </mxCell>
        <mxCell id="h4aKraKf9S6yaCVDZAv2-122" value="Yes" style="text;strokeColor=none;align=center;fillColor=none;html=1;verticalAlign=middle;whiteSpace=wrap;rounded=0;" vertex="1" parent="1">
          <mxGeometry x="310" y="1310" width="60" height="30" as="geometry" />
        </mxCell>
        <mxCell id="h4aKraKf9S6yaCVDZAv2-124" value="No" style="text;strokeColor=none;align=center;fillColor=none;html=1;verticalAlign=middle;whiteSpace=wrap;rounded=0;" vertex="1" parent="1">
          <mxGeometry x="240" y="1280" width="60" height="30" as="geometry" />
        </mxCell>
        <mxCell id="h4aKraKf9S6yaCVDZAv2-125" value="No" style="text;strokeColor=none;align=center;fillColor=none;html=1;verticalAlign=middle;whiteSpace=wrap;rounded=0;" vertex="1" parent="1">
          <mxGeometry x="240" y="1080" width="60" height="30" as="geometry" />
        </mxCell>
        <mxCell id="h4aKraKf9S6yaCVDZAv2-129" value="" style="edgeStyle=orthogonalEdgeStyle;rounded=0;orthogonalLoop=1;jettySize=auto;html=1;" edge="1" parent="1" source="h4aKraKf9S6yaCVDZAv2-126" target="h4aKraKf9S6yaCVDZAv2-127">
          <mxGeometry relative="1" as="geometry" />
        </mxCell>
        <mxCell id="h4aKraKf9S6yaCVDZAv2-126" value="Insert thinkness of Mat layer" style="html=1;dashed=0;whiteSpace=wrap;" vertex="1" parent="1">
          <mxGeometry x="280" y="1360" width="100" height="50" as="geometry" />
        </mxCell>
        <mxCell id="h4aKraKf9S6yaCVDZAv2-132" style="edgeStyle=orthogonalEdgeStyle;rounded=0;orthogonalLoop=1;jettySize=auto;html=1;exitX=0;exitY=0.75;exitDx=0;exitDy=0;" edge="1" parent="1" source="h4aKraKf9S6yaCVDZAv2-127" target="h4aKraKf9S6yaCVDZAv2-131">
          <mxGeometry relative="1" as="geometry" />
        </mxCell>
        <mxCell id="h4aKraKf9S6yaCVDZAv2-138" style="edgeStyle=orthogonalEdgeStyle;rounded=0;orthogonalLoop=1;jettySize=auto;html=1;entryX=0.5;entryY=0;entryDx=0;entryDy=0;" edge="1" parent="1" source="h4aKraKf9S6yaCVDZAv2-127" target="h4aKraKf9S6yaCVDZAv2-136">
          <mxGeometry relative="1" as="geometry" />
        </mxCell>
        <mxCell id="h4aKraKf9S6yaCVDZAv2-127" value="Is there multiple Mats in layer?" style="shape=hexagon;perimeter=hexagonPerimeter2;whiteSpace=wrap;html=1;size=0.25" vertex="1" parent="1">
          <mxGeometry x="280" y="1450" width="100" height="50" as="geometry" />
        </mxCell>
        <mxCell id="h4aKraKf9S6yaCVDZAv2-137" style="edgeStyle=orthogonalEdgeStyle;rounded=0;orthogonalLoop=1;jettySize=auto;html=1;entryX=0;entryY=0.5;entryDx=0;entryDy=0;exitX=0.5;exitY=1;exitDx=0;exitDy=0;" edge="1" parent="1" source="h4aKraKf9S6yaCVDZAv2-131" target="h4aKraKf9S6yaCVDZAv2-136">
          <mxGeometry relative="1" as="geometry" />
        </mxCell>
        <mxCell id="h4aKraKf9S6yaCVDZAv2-131" value="Insert fraction of the different Mats in layer" style="html=1;dashed=0;whiteSpace=wrap;" vertex="1" parent="1">
          <mxGeometry x="150" y="1510" width="100" height="50" as="geometry" />
        </mxCell>
        <mxCell id="h4aKraKf9S6yaCVDZAv2-133" value="Yes" style="text;strokeColor=none;align=center;fillColor=none;html=1;verticalAlign=middle;whiteSpace=wrap;rounded=0;" vertex="1" parent="1">
          <mxGeometry x="320" y="1110" width="60" height="30" as="geometry" />
        </mxCell>
        <mxCell id="h4aKraKf9S6yaCVDZAv2-134" value="Yes" style="text;strokeColor=none;align=center;fillColor=none;html=1;verticalAlign=middle;whiteSpace=wrap;rounded=0;" vertex="1" parent="1">
          <mxGeometry x="210" y="1480" width="60" height="30" as="geometry" />
        </mxCell>
        <mxCell id="h4aKraKf9S6yaCVDZAv2-144" style="edgeStyle=orthogonalEdgeStyle;rounded=0;orthogonalLoop=1;jettySize=auto;html=1;" edge="1" parent="1" source="h4aKraKf9S6yaCVDZAv2-135" target="h4aKraKf9S6yaCVDZAv2-29">
          <mxGeometry relative="1" as="geometry" />
        </mxCell>
        <mxCell id="h4aKraKf9S6yaCVDZAv2-135" value="Store Con in ConDB" style="html=1;dashed=0;whiteSpace=wrap;" vertex="1" parent="1">
          <mxGeometry x="280" y="1660" width="100" height="50" as="geometry" />
        </mxCell>
        <mxCell id="h4aKraKf9S6yaCVDZAv2-139" style="edgeStyle=orthogonalEdgeStyle;rounded=0;orthogonalLoop=1;jettySize=auto;html=1;entryX=1;entryY=0.5;entryDx=0;entryDy=0;exitX=1;exitY=0.5;exitDx=0;exitDy=0;" edge="1" parent="1" source="h4aKraKf9S6yaCVDZAv2-136" target="h4aKraKf9S6yaCVDZAv2-127">
          <mxGeometry relative="1" as="geometry" />
        </mxCell>
        <mxCell id="h4aKraKf9S6yaCVDZAv2-143" value="" style="edgeStyle=orthogonalEdgeStyle;rounded=0;orthogonalLoop=1;jettySize=auto;html=1;" edge="1" parent="1" source="h4aKraKf9S6yaCVDZAv2-136" target="h4aKraKf9S6yaCVDZAv2-135">
          <mxGeometry relative="1" as="geometry" />
        </mxCell>
        <mxCell id="h4aKraKf9S6yaCVDZAv2-136" value="All required data inserted?" style="shape=hexagon;perimeter=hexagonPerimeter2;whiteSpace=wrap;html=1;size=0.25" vertex="1" parent="1">
          <mxGeometry x="280" y="1560" width="100" height="50" as="geometry" />
        </mxCell>
        <mxCell id="h4aKraKf9S6yaCVDZAv2-140" value="No" style="text;strokeColor=none;align=center;fillColor=none;html=1;verticalAlign=middle;whiteSpace=wrap;rounded=0;" vertex="1" parent="1">
          <mxGeometry x="310" y="1500" width="60" height="30" as="geometry" />
        </mxCell>
        <mxCell id="h4aKraKf9S6yaCVDZAv2-141" value="No" style="text;strokeColor=none;align=center;fillColor=none;html=1;verticalAlign=middle;whiteSpace=wrap;rounded=0;" vertex="1" parent="1">
          <mxGeometry x="360" y="1580" width="60" height="30" as="geometry" />
        </mxCell>
        <mxCell id="h4aKraKf9S6yaCVDZAv2-142" value="Yes" style="text;strokeColor=none;align=center;fillColor=none;html=1;verticalAlign=middle;whiteSpace=wrap;rounded=0;" vertex="1" parent="1">
          <mxGeometry x="320" y="1610" width="60" height="30" as="geometry" />
        </mxCell>
      </root>
    </mxGraphModel>
  </diagram>
</mxfile>
